<?xml version="1.0" encoding="UTF-8"?>
<svg width="400" height="300" viewBox="0 0 400 300" xmlns="http://www.w3.org/2000/svg">
  <!-- Dog body -->
  <ellipse cx="200" cy="180" rx="90" ry="50" fill="none" stroke="#000" stroke-width="3"/>
  
  <!-- Dog head -->
  <ellipse cx="200" cy="100" rx="60" ry="45" fill="none" stroke="#000" stroke-width="3"/>
  
  <!-- Dog ears -->
  <ellipse cx="160" cy="80" rx="20" ry="35" fill="none" stroke="#000" stroke-width="3"/>
  <ellipse cx="240" cy="80" rx="20" ry="35" fill="none" stroke="#000" stroke-width="3"/>
  
  <!-- Dog snout -->
  <ellipse cx="200" cy="120" rx="25" ry="20" fill="none" stroke="#000" stroke-width="3"/>
  
  <!-- Dog eyes -->
  <circle cx="185" cy="90" r="6" fill="none" stroke="#000" stroke-width="2"/>
  <circle cx="215" cy="90" r="6" fill="none" stroke="#000" stroke-width="2"/>
  
  <!-- Dog nose -->
  <circle cx="200" cy="115" r="4" fill="none" stroke="#000" stroke-width="2"/>
  
  <!-- Dog mouth -->
  <path d="M 200 120 Q 190 130 180 125" fill="none" stroke="#000" stroke-width="2"/>
  <path d="M 200 120 Q 210 130 220 125" fill="none" stroke="#000" stroke-width="2"/>
  
  <!-- Dog legs -->
  <rect x="150" y="220" width="20" height="40" fill="none" stroke="#000" stroke-width="3"/>
  <rect x="180" y="220" width="20" height="40" fill="none" stroke="#000" stroke-width="3"/>
  <rect x="200" y="220" width="20" height="40" fill="none" stroke="#000" stroke-width="3"/>
  <rect x="230" y="220" width="20" height="40" fill="none" stroke="#000" stroke-width="3"/>
  
  <!-- Dog paws -->
  <ellipse cx="160" cy="265" rx="12" ry="8" fill="none" stroke="#000" stroke-width="2"/>
  <ellipse cx="190" cy="265" rx="12" ry="8" fill="none" stroke="#000" stroke-width="2"/>
  <ellipse cx="210" cy="265" rx="12" ry="8" fill="none" stroke="#000" stroke-width="2"/>
  <ellipse cx="240" cy="265" rx="12" ry="8" fill="none" stroke="#000" stroke-width="2"/>
  
  <!-- Dog tail -->
  <path d="M 290 170 Q 320 150 340 140 Q 360 130 350 110" fill="none" stroke="#000" stroke-width="3"/>
  
  <!-- Dog collar -->
  <ellipse cx="200" cy="140" rx="65" ry="8" fill="none" stroke="#000" stroke-width="3"/>
  <rect x="195" y="135" width="10" height="10" fill="none" stroke="#000" stroke-width="2"/>
</svg> 