<?xml version="1.0" encoding="UTF-8"?>
<svg width="400" height="350" viewBox="0 0 400 350" xmlns="http://www.w3.org/2000/svg">
  <!-- Flower stem -->
  <rect x="195" y="200" width="10" height="120" fill="none" stroke="#000" stroke-width="3"/>
  
  <!-- Flower center -->
  <circle cx="200" cy="120" r="25" fill="none" stroke="#000" stroke-width="3"/>
  
  <!-- Flower petals -->
  <ellipse cx="200" cy="70" rx="20" ry="35" fill="none" stroke="#000" stroke-width="3"/>
  <ellipse cx="200" cy="170" rx="20" ry="35" fill="none" stroke="#000" stroke-width="3"/>
  <ellipse cx="150" cy="120" rx="35" ry="20" fill="none" stroke="#000" stroke-width="3"/>
  <ellipse cx="250" cy="120" rx="35" ry="20" fill="none" stroke="#000" stroke-width="3"/>
  
  <!-- Diagonal petals -->
  <ellipse cx="165" cy="85" rx="25" ry="30" fill="none" stroke="#000" stroke-width="3" transform="rotate(-45 165 85)"/>
  <ellipse cx="235" cy="85" rx="25" ry="30" fill="none" stroke="#000" stroke-width="3" transform="rotate(45 235 85)"/>
  <ellipse cx="165" cy="155" rx="25" ry="30" fill="none" stroke="#000" stroke-width="3" transform="rotate(45 165 155)"/>
  <ellipse cx="235" cy="155" rx="25" ry="30" fill="none" stroke="#000" stroke-width="3" transform="rotate(-45 235 155)"/>
  
  <!-- Flower center details -->
  <circle cx="190" cy="110" r="3" fill="none" stroke="#000" stroke-width="1"/>
  <circle cx="210" cy="110" r="3" fill="none" stroke="#000" stroke-width="1"/>
  <circle cx="190" cy="130" r="3" fill="none" stroke="#000" stroke-width="1"/>
  <circle cx="210" cy="130" r="3" fill="none" stroke="#000" stroke-width="1"/>
  <circle cx="200" cy="120" r="3" fill="none" stroke="#000" stroke-width="1"/>
  
  <!-- Leaves -->
  <ellipse cx="150" cy="250" rx="25" ry="15" fill="none" stroke="#000" stroke-width="3" transform="rotate(-30 150 250)"/>
  <ellipse cx="250" cy="270" rx="25" ry="15" fill="none" stroke="#000" stroke-width="3" transform="rotate(30 250 270)"/>
  
  <!-- Leaf veins -->
  <line x1="140" y1="245" x2="160" y2="255" stroke="#000" stroke-width="1"/>
  <line x1="240" y1="275" x2="260" y2="265" stroke="#000" stroke-width="1"/>
  
  <!-- Ground -->
  <ellipse cx="200" cy="320" rx="80" ry="15" fill="none" stroke="#000" stroke-width="2"/>
</svg> 