<?xml version="1.0" encoding="UTF-8"?>
<svg width="400" height="300" viewBox="0 0 400 300" xmlns="http://www.w3.org/2000/svg">
  <!-- Cat body -->
  <ellipse cx="200" cy="200" rx="80" ry="60" fill="none" stroke="#000" stroke-width="3"/>
  
  <!-- Cat head -->
  <circle cx="200" cy="120" r="50" fill="none" stroke="#000" stroke-width="3"/>
  
  <!-- Cat ears -->
  <polygon points="170,80 160,50 180,60" fill="none" stroke="#000" stroke-width="3"/>
  <polygon points="230,80 240,50 220,60" fill="none" stroke="#000" stroke-width="3"/>
  
  <!-- Inner ears -->
  <polygon points="170,75 165,60 175,65" fill="none" stroke="#000" stroke-width="2"/>
  <polygon points="230,75 235,60 225,65" fill="none" stroke="#000" stroke-width="2"/>
  
  <!-- Cat eyes -->
  <circle cx="185" cy="110" r="8" fill="none" stroke="#000" stroke-width="2"/>
  <circle cx="215" cy="110" r="8" fill="none" stroke="#000" stroke-width="2"/>
  
  <!-- Cat nose -->
  <polygon points="200,125 195,135 205,135" fill="none" stroke="#000" stroke-width="2"/>
  
  <!-- Cat mouth -->
  <path d="M 200 135 Q 190 145 180 140" fill="none" stroke="#000" stroke-width="2"/>
  <path d="M 200 135 Q 210 145 220 140" fill="none" stroke="#000" stroke-width="2"/>
  
  <!-- Cat whiskers -->
  <line x1="150" y1="125" x2="120" y2="120" stroke="#000" stroke-width="2"/>
  <line x1="150" y1="135" x2="120" y2="135" stroke="#000" stroke-width="2"/>
  <line x1="250" y1="125" x2="280" y2="120" stroke="#000" stroke-width="2"/>
  <line x1="250" y1="135" x2="280" y2="135" stroke="#000" stroke-width="2"/>
  
  <!-- Cat legs -->
  <ellipse cx="160" cy="250" rx="15" ry="30" fill="none" stroke="#000" stroke-width="3"/>
  <ellipse cx="190" cy="250" rx="15" ry="30" fill="none" stroke="#000" stroke-width="3"/>
  <ellipse cx="210" cy="250" rx="15" ry="30" fill="none" stroke="#000" stroke-width="3"/>
  <ellipse cx="240" cy="250" rx="15" ry="30" fill="none" stroke="#000" stroke-width="3"/>
  
  <!-- Cat tail -->
  <path d="M 280 200 Q 320 180 340 160 Q 350 140 340 120" fill="none" stroke="#000" stroke-width="3"/>
</svg> 